{
	"asset":{
		"generator":"Khronos glTF Blender I/O v4.5.48",
		"version":"2.0"
	},
	"scene":0,
	"scenes":[
		{
			"name":"Scene",
			"nodes":[
				2
			]
		}
	],
	"nodes":[
		{
			"name":"Bone"
		},
		{
			"mesh":0,
			"name":"Mask",
			"skin":0
		},
		{
			"children":[
				1,
				0
			],
			"name":"IntroMask"
		}
	],
	"animations":[
		{
			"channels":[
				{
					"sampler":0,
					"target":{
						"node":0,
						"path":"translation"
					}
				},
				{
					"sampler":1,
					"target":{
						"node":0,
						"path":"rotation"
					}
				},
				{
					"sampler":2,
					"target":{
						"node":0,
						"path":"scale"
					}
				}
			],
			"name":"loading",
			"samplers":[
				{
					"input":8,
					"interpolation":"LINEAR",
					"output":9
				},
				{
					"input":10,
					"interpolation":"STEP",
					"output":11
				},
				{
					"input":10,
					"interpolation":"STEP",
					"output":12
				}
			]
		}
	],
	"meshes":[
		{
			"name":"Cube",
			"primitives":[
				{
					"attributes":{
						"POSITION":0,
						"NORMAL":1,
						"TEXCOORD_0":2,
						"COLOR_0":3,
						"JOINTS_0":4,
						"WEIGHTS_0":5
					},
					"indices":6
				}
			]
		}
	],
	"skins":[
		{
			"inverseBindMatrices":7,
			"joints":[
				0
			],
			"name":"IntroMask"
		}
	],
	"accessors":[
		{
			"bufferView":0,
			"componentType":5126,
			"count":580,
			"max":[
				12.75,
				6.75,
				-4.552737298268994e-09
			],
			"min":[
				-12.75,
				-6.749999046325684,
				-4.552737298268994e-09
			],
			"type":"VEC3"
		},
		{
			"bufferView":1,
			"componentType":5126,
			"count":580,
			"type":"VEC3"
		},
		{
			"bufferView":2,
			"componentType":5126,
			"count":580,
			"type":"VEC2"
		},
		{
			"bufferView":3,
			"componentType":5123,
			"count":580,
			"normalized":true,
			"type":"VEC4"
		},
		{
			"bufferView":4,
			"componentType":5121,
			"count":580,
			"type":"VEC4"
		},
		{
			"bufferView":5,
			"componentType":5126,
			"count":580,
			"type":"VEC4"
		},
		{
			"bufferView":6,
			"componentType":5123,
			"count":894,
			"type":"SCALAR"
		},
		{
			"bufferView":7,
			"componentType":5126,
			"count":1,
			"type":"MAT4"
		},
		{
			"bufferView":8,
			"componentType":5126,
			"count":121,
			"max":[
				5
			],
			"min":[
				0
			],
			"type":"SCALAR"
		},
		{
			"bufferView":9,
			"componentType":5126,
			"count":121,
			"type":"VEC3"
		},
		{
			"bufferView":10,
			"componentType":5126,
			"count":2,
			"max":[
				5
			],
			"min":[
				0
			],
			"type":"SCALAR"
		},
		{
			"bufferView":11,
			"componentType":5126,
			"count":2,
			"type":"VEC4"
		},
		{
			"bufferView":12,
			"componentType":5126,
			"count":2,
			"type":"VEC3"
		}
	],
	"bufferViews":[
		{
			"buffer":0,
			"byteLength":6960,
			"byteOffset":0,
			"target":34962
		},
		{
			"buffer":0,
			"byteLength":6960,
			"byteOffset":6960,
			"target":34962
		},
		{
			"buffer":0,
			"byteLength":4640,
			"byteOffset":13920,
			"target":34962
		},
		{
			"buffer":0,
			"byteLength":4640,
			"byteOffset":18560,
			"target":34962
		},
		{
			"buffer":0,
			"byteLength":2320,
			"byteOffset":23200,
			"target":34962
		},
		{
			"buffer":0,
			"byteLength":9280,
			"byteOffset":25520,
			"target":34962
		},
		{
			"buffer":0,
			"byteLength":1788,
			"byteOffset":34800,
			"target":34963
		},
		{
			"buffer":0,
			"byteLength":64,
			"byteOffset":36588
		},
		{
			"buffer":0,
			"byteLength":484,
			"byteOffset":36652
		},
		{
			"buffer":0,
			"byteLength":1452,
			"byteOffset":37136
		},
		{
			"buffer":0,
			"byteLength":8,
			"byteOffset":38588
		},
		{
			"buffer":0,
			"byteLength":32,
			"byteOffset":38596
		},
		{
			"buffer":0,
			"byteLength":24,
			"byteOffset":38628
		}
	],
	"buffers":[
		{
			"byteLength":38652,
			"uri":"intro.bin"
		}
	]
}
