<?xml version="1.0" encoding="UTF-8" standalone="no"?>
<!-- Created with Inkscape (http://www.inkscape.org/) -->

<svg
   width="6.0909715mm"
   height="4.3363147mm"
   viewBox="0 0 6.0909715 4.3363147"
   version="1.1"
   id="svg1"
   inkscape:version="1.3.2 (091e20e, 2023-11-25, custom)"
   sodipodi:docname="icon.svg"
   inkscape:export-filename="..\src\favicon.svg"
   inkscape:export-xdpi="96"
   inkscape:export-ydpi="96"
   xmlns:inkscape="http://www.inkscape.org/namespaces/inkscape"
   xmlns:sodipodi="http://sodipodi.sourceforge.net/DTD/sodipodi-0.dtd"
   xmlns="http://www.w3.org/2000/svg"
   xmlns:svg="http://www.w3.org/2000/svg">
  <sodipodi:namedview
     id="namedview1"
     pagecolor="#ffffff"
     bordercolor="#000000"
     borderopacity="0.25"
     inkscape:showpageshadow="2"
     inkscape:pageopacity="0.0"
     inkscape:pagecheckerboard="0"
     inkscape:deskcolor="#d1d1d1"
     inkscape:document-units="mm"
     inkscape:zoom="8.1941057"
     inkscape:cx="324.07441"
     inkscape:cy="512.62458"
     inkscape:window-width="1920"
     inkscape:window-height="1009"
     inkscape:window-x="1912"
     inkscape:window-y="-8"
     inkscape:window-maximized="1"
     inkscape:current-layer="layer1" />
  <defs
     id="defs1" />
  <g
     inkscape:label="Calque 1"
     inkscape:groupmode="layer"
     id="layer1"
     transform="translate(-88.482889,-135.53753)">
    <g
       inkscape:groupmode="layer"
       id="layer3"
       inkscape:label="Calque 3">
      <rect
         style="display:none;fill:#474747;fill-opacity:1;stroke:none;stroke-width:0.3;stroke-linecap:round;stroke-linejoin:round;stroke-miterlimit:24.4;stroke-dasharray:none;stroke-opacity:1"
         id="rect19"
         width="13.744926"
         height="8.173893"
         x="84.501617"
         y="134.43542" />
    </g>
    <path
       style="fill:none;fill-opacity:1;stroke:#000000;stroke-width:0.55;stroke-linecap:round;stroke-linejoin:round;stroke-miterlimit:24.4;stroke-dasharray:none"
       d="m 89.778587,137.16183 c -0.86598,0.28195 -1.327961,-0.64385 -0.498356,-0.95579 1.339365,-0.50362 2.431906,1.90717 3.397986,1.75995 0.551526,-0.0841 0.928419,-0.53556 1.115046,-0.81996 0.08976,-0.13678 0.135504,-0.2349 0.135504,-0.2349"
       id="path14"
       sodipodi:nodetypes="csssc"
       inkscape:export-filename="..\src\favicon.svg"
       inkscape:export-xdpi="96"
       inkscape:export-ydpi="96" />
    <path
       style="fill:none;fill-opacity:1;stroke:#000000;stroke-width:0.55;stroke-linejoin:round;stroke-miterlimit:24.4;stroke-dasharray:none"
       d="m 90.793857,136.66451 c -0.431172,0.66693 0.27495,1.57094 -0.140049,2.42124 -0.487087,0.998 -1.453325,0.32401 -1.976459,-0.19914"
       id="path15"
       sodipodi:nodetypes="csc" />
    <path
       style="fill:none;fill-opacity:1;stroke:#000000;stroke-width:0.55;stroke-linejoin:round;stroke-miterlimit:24.4;stroke-dasharray:none"
       d="m 91.286664,139.66533 c 1.964531,-1.88187 1.01571,-3.55616 1.01571,-3.55616 0,0 1.929313,2.14051 1.64391,3.63601"
       id="path16"
       sodipodi:nodetypes="ccc" />
  </g>
  <g
     inkscape:groupmode="layer"
     id="layer2"
     inkscape:label="Calque 2"
     transform="translate(-88.482889,-135.53753)">
    <path
       style="fill:none;fill-opacity:1;stroke:#ffffff;stroke-width:0.55;stroke-linecap:round;stroke-linejoin:round;stroke-miterlimit:24.4;stroke-dasharray:none;stroke-opacity:1"
       d="m 90.100348,136.86501 c -0.86598,0.28195 -1.327961,-0.64385 -0.498356,-0.95579 1.339365,-0.50362 2.431906,1.90717 3.397986,1.75995 0.551526,-0.0841 0.928419,-0.53556 1.115046,-0.81996 0.08976,-0.13678 0.135504,-0.2349 0.135504,-0.2349"
       id="path17"
       sodipodi:nodetypes="csssc"
       inkscape:export-filename="..\src\favicon.svg"
       inkscape:export-xdpi="96"
       inkscape:export-ydpi="96" />
    <path
       style="fill:none;fill-opacity:1;stroke:#ffffff;stroke-width:0.55;stroke-linejoin:round;stroke-miterlimit:24.4;stroke-dasharray:none;stroke-opacity:1"
       d="m 91.115618,136.36769 c -0.431172,0.66693 0.27495,1.57094 -0.140049,2.42124 -0.487087,0.998 -1.453325,0.32401 -1.976459,-0.19914"
       id="path18"
       sodipodi:nodetypes="csc" />
    <path
       style="fill:none;fill-opacity:1;stroke:#ffffff;stroke-width:0.55;stroke-linejoin:round;stroke-miterlimit:24.4;stroke-dasharray:none;stroke-opacity:1"
       d="m 91.608425,139.36851 c 1.964531,-1.88187 1.01571,-3.55616 1.01571,-3.55616 0,0 1.929313,2.14051 1.64391,3.63601"
       id="path19"
       sodipodi:nodetypes="ccc" />
  </g>
</svg>
